HIERARCHY
ROOT hip
{
  OFFSET 0.00112043 5.09927 -9.65472
  CHANNELS 6 Xposition Yposition Zposition Zrotation Xrotation Yrotation
  JOINT abdomen
  {
    OFFSET 0 -1.186 -1.5018
    CHANNELS 3 Zrotation Xrotation Yrotation
    JOINT abdomen2
    {
      OFFSET 0 9.964 0.2134
      CHANNELS 3 Zrotation Xrotation Yrotation
      JOINT chest
      {
        OFFSET 0 13.134 -3.2573
        CHANNELS 3 Zrotation Xrotation Yrotation
        JOINT neck
        {
          OFFSET 0 20.686 -1.6905
          CHANNELS 3 Zrotation Xrotation Yrotation
          JOINT head
          {
            OFFSET 0 7.238 -0.1237
            CHANNELS 3 Zrotation Xrotation Yrotation
            End Site
            {
              OFFSET 0 0 0
            }
          }
        }
        JOINT lCollar
        {
          OFFSET 1.7069 20.075 5.0056
          CHANNELS 3 Zrotation Xrotation Yrotation
          JOINT lShldr
          {
            OFFSET 13.6458 -0.047 -4.849
            CHANNELS 3 Zrotation Xrotation Yrotation
            JOINT lForeArm
            {
              OFFSET 28.3255 -0.9759 2.2888
              CHANNELS 3 Zrotation Xrotation Yrotation
              JOINT lHand
              {
                OFFSET 22.1583 -0.53 10.8316
                CHANNELS 3 Zrotation Xrotation Yrotation
                JOINT lThumb1
                {
                  OFFSET 0.786 0.112 2.5817
                  CHANNELS 3 Zrotation Xrotation Yrotation
                  JOINT lThumb2
                  {
                    OFFSET 0.3601 -0.878 4.2331
                    CHANNELS 3 Zrotation Xrotation Yrotation
                    JOINT lThumb2_End
                    {
                      OFFSET 1.8127 -1.216 2.2227
                      CHANNELS 3 Zrotation Xrotation Yrotation
                      End Site
                      {
                        OFFSET 0.0181 -0.0122 0.0222
                      }
                    }
                  }
                }
                JOINT lCarpal1
                {
                  OFFSET 0.9571 1.114 1.7695
                  CHANNELS 3 Zrotation Xrotation Yrotation
                  JOINT lIndex1
                  {
                    OFFSET 4.1246 0.487 4.1451
                    CHANNELS 3 Zrotation Xrotation Yrotation
                    JOINT lIndex2
                    {
                      OFFSET 3.4052 -1.454 2.7682
                      CHANNELS 3 Zrotation Xrotation Yrotation
                      JOINT lIndex2_End
                      {
                        OFFSET 1.4531 -1.795 1.2713
                        CHANNELS 3 Zrotation Xrotation Yrotation
                        End Site
                        {
                          OFFSET 0.0145 -0.0179 0.0127
                        }
                      }
                    }
                  }
                  JOINT lMid1
                  {
                    OFFSET 5.6954 0.21 2.1184
                    CHANNELS 3 Zrotation Xrotation Yrotation
                    JOINT lMid2
                    {
                      OFFSET 3.9766 -1.54 2.3863
                      CHANNELS 3 Zrotation Xrotation Yrotation
                      JOINT lMid2_End
                      {
                        OFFSET 1.4042 -1.926 1.125
                        CHANNELS 3 Zrotation Xrotation Yrotation
                        End Site
                        {
                          OFFSET 0.014 -0.0193 0.0113
                        }
                      }
                    }
                  }
                }
                JOINT lCarpal2
                {
                  OFFSET 2.0956 0.66 -0.3894
                  CHANNELS 3 Zrotation Xrotation Yrotation
                  JOINT lRing1
                  {
                    OFFSET 5.0395 -0.09 2.4971
                    CHANNELS 3 Zrotation Xrotation Yrotation
                    JOINT lRing2
                    {
                      OFFSET 3.7921 -1.552 1.4806
                      CHANNELS 3 Zrotation Xrotation Yrotation
                      JOINT lRing2_End
                      {
                        OFFSET 1.4655 -1.808 0.9609
                        CHANNELS 3 Zrotation Xrotation Yrotation
                        End Site
                        {
                          OFFSET 0.0147 -0.0181 0.0096
                        }
                      }
                    }
                  }
                  JOINT lPinky1
                  {
                    OFFSET 4.9141 -1.269 0.3591
                    CHANNELS 3 Zrotation Xrotation Yrotation
                    JOINT lPinky2
                    {
                      OFFSET 3.1477 -1.685 0.8462
                      CHANNELS 3 Zrotation Xrotation Yrotation
                      JOINT lPinky2_End
                      {
                        OFFSET 0.8055 -1.585 0.7955
                        CHANNELS 3 Zrotation Xrotation Yrotation
                        End Site
                        {
                          OFFSET 0.0081 -0.0158 0.008
                        }
                      }
                    }
                  }
                }
              }
            }
          }
        }
        JOINT rCollar
        {
          OFFSET -1.7069 20.075 5.0056
          CHANNELS 3 Zrotation Xrotation Yrotation
          JOINT rShldr
          {
            OFFSET -13.6458 -0.047 -4.849
            CHANNELS 3 Zrotation Xrotation Yrotation
            JOINT rForeArm
            {
              OFFSET -28.3255 -0.9759 2.2888
              CHANNELS 3 Zrotation Xrotation Yrotation
              JOINT rHand
              {
                OFFSET -22.1583 -0.53 10.8316
                CHANNELS 3 Zrotation Xrotation Yrotation
                JOINT rThumb1
                {
                  OFFSET -0.786 0.112 2.5817
                  CHANNELS 3 Zrotation Xrotation Yrotation
                  JOINT rThumb2
                  {
                    OFFSET -0.3601 -0.878 4.2331
                    CHANNELS 3 Zrotation Xrotation Yrotation
                    JOINT rThumb2_End
                    {
                      OFFSET -1.8127 -1.216 2.2227
                      CHANNELS 3 Zrotation Xrotation Yrotation
                      End Site
                      {
                        OFFSET -0.0181 -0.0122 0.0222
                      }
                    }
                  }
                }
                JOINT rCarpal1
                {
                  OFFSET -0.9571 1.114 1.7695
                  CHANNELS 3 Zrotation Xrotation Yrotation
                  JOINT rIndex1
                  {
                    OFFSET -4.1246 0.487 4.1451
                    CHANNELS 3 Zrotation Xrotation Yrotation
                    JOINT rIndex2
                    {
                      OFFSET -3.4052 -1.454 2.7682
                      CHANNELS 3 Zrotation Xrotation Yrotation
                      JOINT rIndex2_End
                      {
                        OFFSET -1.4531 -1.795 1.2713
                        CHANNELS 3 Zrotation Xrotation Yrotation
                        End Site
                        {
                          OFFSET -0.0145 -0.018 0.0127
                        }
                      }
                    }
                  }
                  JOINT rMid1
                  {
                    OFFSET -5.6954 0.21 2.1184
                    CHANNELS 3 Zrotation Xrotation Yrotation
                    JOINT rMid2
                    {
                      OFFSET -3.9766 -1.54 2.3863
                      CHANNELS 3 Zrotation Xrotation Yrotation
                      JOINT rMid2_End
                      {
                        OFFSET -1.4042 -1.926 1.125
                        CHANNELS 3 Zrotation Xrotation Yrotation
                        End Site
                        {
                          OFFSET -0.014 -0.0193 0.0113
                        }
                      }
                    }
                  }
                }
                JOINT rCarpal2
                {
                  OFFSET -2.0956 0.66 -0.3894
                  CHANNELS 3 Zrotation Xrotation Yrotation
                  JOINT rRing1
                  {
                    OFFSET -5.0395 -0.09 2.4971
                    CHANNELS 3 Zrotation Xrotation Yrotation
                    JOINT rRing2
                    {
                      OFFSET -3.7921 -1.552 1.4806
                      CHANNELS 3 Zrotation Xrotation Yrotation
                      JOINT rRing2_End
                      {
                        OFFSET -1.4655 -1.808 0.9609
                        CHANNELS 3 Zrotation Xrotation Yrotation
                        End Site
                        {
                          OFFSET -0.0147 -0.0181 0.0096
                        }
                      }
                    }
                  }
                  JOINT rPinky1
                  {
                    OFFSET -4.9141 -1.269 0.3592
                    CHANNELS 3 Zrotation Xrotation Yrotation
                    JOINT rPinky2
                    {
                      OFFSET -3.1477 -1.685 0.8462
                      CHANNELS 3 Zrotation Xrotation Yrotation
                      JOINT rPinky2_End
                      {
                        OFFSET -0.8055 -1.585 0.7955
                        CHANNELS 3 Zrotation Xrotation Yrotation
                        End Site
                        {
                          OFFSET -0.0081 -0.0158 0.008
                        }
                      }
                    }
                  }
                }
              }
            }
          }
        }
      }
    }
  }
  JOINT lThigh
  {
    OFFSET 8.367 -8.2066 0.5982
    CHANNELS 3 Zrotation Xrotation Yrotation
    JOINT lShin
    {
      OFFSET 2.1923 -43.463 -0.4932
      CHANNELS 3 Zrotation Xrotation Yrotation
      JOINT lFoot
      {
        OFFSET 0.7333 -45.8593 -2.6451
        CHANNELS 3 Zrotation Xrotation Yrotation
        End Site
        {
          OFFSET 2.6618 -4.2699 12.3931
        }
      }
    }
  }
  JOINT rThigh
  {
    OFFSET -8.367 -8.2066 0.5982
    CHANNELS 3 Zrotation Xrotation Yrotation
    JOINT rShin
    {
      OFFSET -2.1923 -43.463 -0.4931
      CHANNELS 3 Zrotation Xrotation Yrotation
      JOINT rFoot
      {
        OFFSET -0.7333 -45.8593 -2.6451
        CHANNELS 3 Zrotation Xrotation Yrotation
        End Site
        {
          OFFSET -2.6618 -4.2699 12.3931
        }
      }
    }
  }
}
MOTION
Frames:	5
Frame Time:	0.0333333
-0.770992 -5.26058 -0.703498 -180 -89.9981 -180 -0.0243142 6.9344 -0.0999585 -0.0367447 13.8688 -0.199141 -0.0367446 13.8688 -0.199141 25.3546 26.6043 -11.9846 -10.0879 3.25014 1.87371 8.59549 -2.20568 9.37793 -74.2227 -6.75815 -6.19516 -5.73962 -10.7284 -61.9675 -52.8225 -11.4199 1.29982 -4.07056e-006 4.1882e-006 1.17512e-006 4.75255e-006 3.28061e-006 -6.35566e-007 8.61167e-007 2.46586e-006 -1.67591e-006 3.18055e-015 0 6.36111e-015 -4.07056e-006 4.1882e-006 1.17512e-006 4.75255e-006 3.28061e-006 -6.35566e-007 8.61167e-007 2.46586e-006 -1.67591e-006 -4.07056e-006 4.1882e-006 1.17512e-006 4.75255e-006 3.28061e-006 -6.35566e-007 8.61167e-007 2.46586e-006 -1.67591e-006 3.18055e-015 0 6.36111e-015 -4.07056e-006 4.1882e-006 1.17512e-006 4.75255e-006 3.28061e-006 -6.35566e-007 8.61167e-007 2.46586e-006 -1.67591e-006 -4.07056e-006 4.1882e-006 1.17512e-006 4.75255e-006 3.28061e-006 -6.35566e-007 8.61167e-007 2.46586e-006 -1.67591e-006 -14.5335 -5.59042 2.27822 71.6911 -6.37852 23.8047 5.05338 -14.0152 63.3354 69.5833 8.91269 -9.45135 -5.8739e-007 1.54804e-006 3.50454e-007 5.8739e-007 -1.54804e-006 -3.50453e-007 -5.8739e-007 1.54804e-006 3.50454e-007 7.95139e-016 -2.38542e-015 -3.18055e-015 -5.8739e-007 1.54804e-006 3.50454e-007 5.8739e-007 -1.54804e-006 -3.50453e-007 -5.8739e-007 1.54804e-006 3.50454e-007 -5.8739e-007 1.54804e-006 3.50454e-007 5.8739e-007 -1.54804e-006 -3.50453e-007 -5.8739e-007 1.54804e-006 3.50454e-007 7.95139e-016 -2.38542e-015 -3.18055e-015 -5.8739e-007 1.54804e-006 3.50454e-007 5.8739e-007 -1.54804e-006 -3.50453e-007 -5.8739e-007 1.54804e-006 3.50454e-007 -5.8739e-007 1.54804e-006 3.50454e-007 5.8739e-007 -1.54804e-006 -3.50453e-007 -5.8739e-007 1.54804e-006 3.50454e-007 153.218 -44.7585 161.656 -3.34953 3.44738 1.51292 12.014 19.5405 -0.903287 -171.368 -36.4948 -177.098 1.41359 33.5043 -2.59358 -11.5261 21.87 0.426171 
-0.768723 -5.2604 -0.702202 -180 -89.9981 -180 -0.0243004 6.92813 -0.0999667 -0.0367265 13.8563 -0.199159 -0.0367265 13.8563 -0.199159 25.8998 26.5007 -12.2284 -10.0769 3.38761 1.63796 8.5955 -2.20567 9.37793 -74.2431 -6.7514 -6.19794 -5.73961 -10.7284 -61.9675 -52.8225 -11.4199 1.29982 9.54166e-015 -1.59028e-015 6.36111e-015 -6.36111e-015 4.77083e-015 -9.54166e-015 3.18055e-015 -4.77083e-015 -0 6.36111e-015 -1.59028e-015 9.54166e-015 -0 0 1.27222e-014 9.54166e-015 0 -0 6.36111e-015 0 -0 -0 0 1.27222e-014 9.54166e-015 0 -0 6.36111e-015 0 -0 6.36111e-015 -1.59028e-015 9.54166e-015 -0 0 1.27222e-014 9.54166e-015 0 -0 6.36111e-015 0 -0 -0 0 1.27222e-014 9.54166e-015 0 -0 6.36111e-015 0 -0 -14.5335 -5.5904 2.27823 71.714 -6.36139 23.8071 5.05616 -14.0043 63.3703 69.5833 8.9127 -9.45135 1.76556e-031 -1.59028e-015 6.36111e-015 -5.29669e-031 3.18055e-015 9.54166e-015 -7.15625e-015 -6.36111e-015 6.36111e-015 1.59028e-015 -3.97569e-015 6.36111e-015 -3.18055e-015 2.38542e-015 9.54166e-015 -7.95139e-016 -7.95139e-016 9.54166e-015 -3.97569e-015 3.97569e-015 -0 -3.18055e-015 2.38542e-015 9.54166e-015 -7.95139e-016 -7.95139e-016 9.54166e-015 -3.97569e-015 3.97569e-015 -0 1.59028e-015 -3.97569e-015 6.36111e-015 -3.18055e-015 2.38542e-015 9.54166e-015 -7.95139e-016 -7.95139e-016 9.54166e-015 -3.97569e-015 3.97569e-015 -0 -3.18055e-015 2.38542e-015 9.54166e-015 -7.95139e-016 -7.95139e-016 9.54166e-015 -3.97569e-015 3.97569e-015 -0 153.24 -44.776 161.659 -3.36267 3.43225 1.51342 12.0123 19.5299 -0.90194 -171.366 -36.4981 -177.095 1.40302 33.4576 -2.58633 -11.5256 21.8683 0.42726 
-0.766456 -5.26021 -0.70091 -180 -89.9981 -180 -0.0242866 6.92189 -0.0999753 -0.0367083 13.8438 -0.199177 -0.0367083 13.8438 -0.199177 26.4425 26.3943 -12.4702 -10.0652 3.525 1.40221 8.5955 -2.20567 9.37793 -74.2634 -6.74462 -6.20072 -5.73962 -10.7284 -61.9675 -52.8225 -11.4199 1.29981 -1.20495e-006 3.1897e-006 -2.14319e-006 1.42472e-006 1.67608e-006 2.4669e-006 1.20495e-006 -3.1897e-006 2.14319e-006 -8.82781e-032 1.59028e-015 3.18055e-015 -1.20495e-006 3.1897e-006 -2.14319e-006 1.42472e-006 1.67608e-006 2.4669e-006 1.20495e-006 -3.1897e-006 2.14319e-006 -1.20495e-006 3.1897e-006 -2.14319e-006 1.42472e-006 1.67608e-006 2.4669e-006 1.20495e-006 -3.1897e-006 2.14319e-006 -8.82781e-032 1.59028e-015 3.18055e-015 -1.20495e-006 3.1897e-006 -2.14319e-006 1.42472e-006 1.67608e-006 2.4669e-006 1.20495e-006 -3.1897e-006 2.14319e-006 -1.20495e-006 3.1897e-006 -2.14319e-006 1.42472e-006 1.67608e-006 2.4669e-006 1.20495e-006 -3.1897e-006 2.14319e-006 -14.5335 -5.59039 2.27823 71.737 -6.34425 23.8095 5.05891 -13.9935 63.4052 69.5833 8.9127 -9.45135 -1.57394e-006 -1.65315e-006 -1.52749e-006 1.57394e-006 1.65315e-006 1.52749e-006 -2.16036e-006 -1.04458e-007 -1.17738e-006 3.97569e-015 -3.97569e-015 -0 -1.57394e-006 -1.65315e-006 -1.52749e-006 1.57394e-006 1.65315e-006 1.52749e-006 -2.16036e-006 -1.04458e-007 -1.17738e-006 -1.57394e-006 -1.65315e-006 -1.52749e-006 1.57394e-006 1.65315e-006 1.52749e-006 -2.16036e-006 -1.04458e-007 -1.17738e-006 3.97569e-015 -3.97569e-015 -0 -1.57394e-006 -1.65315e-006 -1.52749e-006 1.57394e-006 1.65315e-006 1.52749e-006 -2.16036e-006 -1.04458e-007 -1.17738e-006 -1.57394e-006 -1.65315e-006 -1.52749e-006 1.57394e-006 1.65315e-006 1.52749e-006 -2.16036e-006 -1.04458e-007 -1.17738e-006 153.263 -44.7937 161.661 -3.37581 3.41685 1.51392 12.0106 19.5194 -0.900623 -171.365 -36.5012 -177.091 1.39241 33.4111 -2.57908 -11.5251 21.8668 0.428347 
-0.764188 -5.26002 -0.699613 -180 -89.9981 -180 -0.0242727 6.91563 -0.099984 -0.03669 13.8313 -0.199195 -0.0366901 13.8313 -0.199195 26.9834 26.2857 -12.7103 -10.0525 3.66232 1.16645 8.59549 -2.20565 9.37792 -74.2837 -6.73785 -6.20352 -5.7396 -10.7284 -61.9675 -52.8225 -11.4199 1.29981 -6.36111e-015 1.59028e-015 -3.18055e-015 3.18055e-015 4.77083e-015 -9.54166e-015 -3.18055e-015 4.77083e-015 -9.54166e-015 -6.36111e-015 -3.18055e-015 -0 6.36111e-015 3.18055e-015 -0 3.18055e-015 6.36111e-015 -6.36111e-015 5.29669e-031 4.77083e-015 -6.36111e-015 6.36111e-015 3.18055e-015 -0 3.18055e-015 6.36111e-015 -6.36111e-015 5.29669e-031 4.77083e-015 -6.36111e-015 -6.36111e-015 -3.18055e-015 -0 6.36111e-015 3.18055e-015 -0 3.18055e-015 6.36111e-015 -6.36111e-015 5.29669e-031 4.77083e-015 -6.36111e-015 6.36111e-015 3.18055e-015 -0 3.18055e-015 6.36111e-015 -6.36111e-015 5.29669e-031 4.77083e-015 -6.36111e-015 -14.5335 -5.59038 2.27823 71.76 -6.32713 23.8118 5.0617 -13.9826 63.4401 69.5833 8.91269 -9.45134 1.99836e-006 -1.13931e-007 2.87337e-006 5.85933e-007 -1.54902e-006 -3.49932e-007 4.36639e-007 -1.23627e-006 2.21847e-006 8.82781e-032 1.59028e-015 -3.18055e-015 1.99836e-006 -1.13931e-007 2.87337e-006 5.85933e-007 -1.54902e-006 -3.49932e-007 4.36639e-007 -1.23627e-006 2.21847e-006 1.99836e-006 -1.13931e-007 2.87337e-006 5.85933e-007 -1.54902e-006 -3.49932e-007 4.36639e-007 -1.23627e-006 2.21847e-006 8.82781e-032 1.59028e-015 -3.18055e-015 1.99836e-006 -1.13931e-007 2.87337e-006 5.85933e-007 -1.54902e-006 -3.49932e-007 4.36639e-007 -1.23627e-006 2.21847e-006 1.99836e-006 -1.13931e-007 2.87337e-006 5.85933e-007 -1.54902e-006 -3.49932e-007 4.36639e-007 -1.23627e-006 2.21847e-006 153.286 -44.8112 161.664 -3.38896 3.4017 1.51437 12.0089 19.5088 -0.899278 -171.364 -36.5042 -177.087 1.38185 33.3646 -2.57187 -11.5246 21.8651 0.429433 
-0.761919 -5.25984 -0.698324 -180 -89.9981 -180 -0.0242589 6.90937 -0.099993 -0.0366717 13.8188 -0.199213 -0.0366717 13.8188 -0.199213 27.5239 26.1766 -12.9492 -10.0388 3.79954 0.930684 8.5955 -2.20569 9.37793 -74.304 -6.73108 -6.20631 -5.73962 -10.7284 -61.9675 -52.8225 -11.4199 1.29981 -6.36111e-015 -4.77083e-015 -3.18055e-015 -1.27222e-014 -1.59028e-015 -0 5.29669e-031 -4.77083e-015 6.36111e-015 0 0 -3.18055e-015 3.18055e-015 4.77083e-015 3.18055e-015 -0 -4.77083e-015 -0 -6.36111e-015 -4.77083e-015 -0 3.18055e-015 4.77083e-015 3.18055e-015 -0 -4.77083e-015 -0 -6.36111e-015 -4.77083e-015 -0 0 0 -3.18055e-015 3.18055e-015 4.77083e-015 3.18055e-015 -0 -4.77083e-015 -0 -6.36111e-015 -4.77083e-015 -0 3.18055e-015 4.77083e-015 3.18055e-015 -0 -4.77083e-015 -0 -6.36111e-015 -4.77083e-015 -0 -14.5335 -5.59042 2.27822 71.783 -6.31001 23.8142 5.06443 -13.9717 63.475 69.5833 8.9127 -9.45135 -1.59028e-015 1.59028e-015 -0 -4.77083e-015 7.95139e-016 9.54166e-015 -1.59028e-015 -2.38542e-015 -0 -1.59028e-015 0 -0 -4.77083e-015 2.38542e-015 9.54166e-015 -3.97569e-015 2.38542e-015 -0 -3.97569e-015 0 -3.18055e-015 -4.77083e-015 2.38542e-015 9.54166e-015 -3.97569e-015 2.38542e-015 -0 -3.97569e-015 0 -3.18055e-015 -1.59028e-015 0 -0 -4.77083e-015 2.38542e-015 9.54166e-015 -3.97569e-015 2.38542e-015 -0 -3.97569e-015 0 -3.18055e-015 -4.77083e-015 2.38542e-015 9.54166e-015 -3.97569e-015 2.38542e-015 -0 -3.97569e-015 0 -3.18055e-015 153.309 -44.8289 161.666 -3.40209 3.38621 1.51476 12.0073 19.4985 -0.897963 -171.363 -36.5074 -177.084 1.3713 33.3181 -2.56464 -11.5241 21.8635 0.430507 
